<?xml version="1.0" encoding="UTF-8" standalone="no"?>
<!DOCTYPE svg PUBLIC "-//W3C//DTD SVG 1.1//EN" "http://www.w3.org/Graphics/SVG/1.1/DTD/svg11.dtd">
<svg width="100%" height="100%" viewBox="0 0 16 16" version="1.1" xmlns="http://www.w3.org/2000/svg" xmlns:xlink="http://www.w3.org/1999/xlink" xml:space="preserve" xmlns:serif="http://www.serif.com/" style="fill-rule:evenodd;clip-rule:evenodd;stroke-linejoin:round;stroke-miterlimit:2;">
    <g>
        <circle cx="8" cy="8" r="8" style="fill:rgb(0,124,138);"/>
        <g transform="matrix(0.72028,0,0,0.72028,1.90372,2.1028)">
            <path d="M11.787,5.515C11.476,4.945 11.049,4.511 10.505,4.213C9.96,3.914 9.325,3.765 8.6,3.765C7.796,3.765 7.084,3.947 6.462,4.31C5.84,4.673 5.354,5.191 5.004,5.865C4.654,6.538 4.479,7.316 4.479,8.197C4.479,9.104 4.657,9.895 5.014,10.568C5.37,11.242 5.866,11.761 6.501,12.123C7.136,12.486 7.874,12.668 8.716,12.668C9.753,12.668 10.602,12.392 11.263,11.842C11.924,11.291 12.358,10.523 12.565,9.538L7.9,9.538L7.9,7.458L15.247,7.458L15.247,9.83C15.066,10.776 14.677,11.65 14.081,12.454C13.485,13.257 12.717,13.902 11.778,14.388C10.838,14.874 9.785,15.117 8.619,15.117C7.311,15.117 6.128,14.822 5.072,14.232C4.016,13.643 3.187,12.823 2.584,11.773C1.982,10.724 1.68,9.532 1.68,8.197C1.68,6.862 1.982,5.667 2.584,4.611C3.187,3.555 4.016,2.732 5.072,2.142C6.128,1.553 7.304,1.258 8.6,1.258C10.129,1.258 11.457,1.631 12.584,2.376C13.712,3.121 14.489,4.167 14.917,5.515L11.787,5.515Z" style="fill:white;fill-rule:nonzero;"/>
        </g>
    </g>
</svg>
